<svg id="Layer_1" data-name="Layer 1" xmlns="http://www.w3.org/2000/svg" viewBox="0 0 65.25 53.5"><defs><style>.cls-1{fill:#fff;stroke-width:2px;}.cls-1,.cls-2{stroke:#691805;stroke-miterlimit:10;}.cls-2{fill:#691805;}</style></defs><title>Headphone Button </title><rect class="cls-1" x="1" y="1" width="63.25" height="51.5" rx="13.59" ry="13.59"/><path class="cls-2" d="M46.61,27.34V24.19a17.68,17.68,0,0,0-4.09-11.52,12.64,12.64,0,0,0-17.76-2,12.45,12.45,0,0,0-2,2,17.62,17.62,0,0,0-4.1,11.52v3.15a3,3,0,0,0-2.52,3.11v4.87a2.93,2.93,0,0,0,2.67,3.12h1.53a3.31,3.31,0,0,0,3.06,3.33,3.36,3.36,0,0,0,3.08-3.58V27.58A3.36,3.36,0,0,0,23.38,24a2.74,2.74,0,0,0-.89.16c0-6.49,4.55-11.75,10.12-11.75s10.1,5.26,10.11,11.75a2.74,2.74,0,0,0-.89-.16,3.36,3.36,0,0,0-3.08,3.58V38.19a3.36,3.36,0,0,0,3.08,3.58,3.31,3.31,0,0,0,3.06-3.33h1.55a2.93,2.93,0,0,0,2.67-3.12V30.45A3,3,0,0,0,46.61,27.34Z"/></svg>