<svg id="Layer_1" data-name="Layer 1" xmlns="http://www.w3.org/2000/svg" viewBox="0 0 65.25 53.5"><defs><style>.cls-1{fill:none;stroke-width:2px;}.cls-1,.cls-2{stroke:#691805;stroke-miterlimit:10;}.cls-2{fill:#691805;}</style></defs><title>Home Button</title><rect class="cls-1" x="1" y="1" width="63.25" height="51.5" rx="13.59" ry="13.59"/><g id="Home"><path class="cls-2" d="M47.32,23.47,33.72,9.86l-.1-.11-.11-.09a.51.51,0,0,0-.16-.09l-.12-.07h-.16l-.33-.06H32a.57.57,0,0,0-.13.08.51.51,0,0,0-.16.09l-.11.09-.12.1L17.9,23.41a2.15,2.15,0,0,0-.16,2.76,1.55,1.55,0,0,0,2.17.38,1.16,1.16,0,0,0,.24-.2l1.17-1.11V36.75c0,2.71,1.92,4.9,4.29,4.9h2.55a1.84,1.84,0,0,0,1.71-2V30.41a.94.94,0,0,1,.86-1h3.79a.93.93,0,0,1,.86,1h0v9a2.67,2.67,0,0,0,0,.4V40a1.79,1.79,0,0,0,1.68,1.56h2.51c2.36,0,4.28-2.2,4.28-4.91V25.24L45,26.41a1.57,1.57,0,0,0,1.13.49,1.64,1.64,0,0,0,1.29-.67A2.16,2.16,0,0,0,47.32,23.47Z"/></g></svg>