<?xml version="1.0" encoding="utf-8"?>
<!-- Generator: Adobe Illustrator 22.1.0, SVG Export Plug-In . SVG Version: 6.00 Build 0)  -->
<svg version="1.1" id="Layer_1" xmlns="http://www.w3.org/2000/svg" xmlns:xlink="http://www.w3.org/1999/xlink" x="0px" y="0px"
	 viewBox="0 0 73 31.5" style="enable-background:new 0 0 73 31.5;" xml:space="preserve">
<style type="text/css">
	.st0{fill:#FFFFFF;stroke:#691805;stroke-width:2;stroke-miterlimit:10;}
	.st1{fill:#691805;stroke:#691805;stroke-miterlimit:10;}
	.st2{font-family:'ArialMT';}
	.st3{font-size:14.76px;}
	.st4{letter-spacing:-0.9;}
</style>
<title>start button</title>
<path class="st0" d="M9.3,1h54.5C68.3,1,72,4.7,72,9.3v13c0,4.6-3.7,8.3-8.3,8.3H9.3c-4.6,0-8.3-3.7-8.3-8.3v-13C1,4.7,4.7,1,9.3,1z
	"/>
<text transform="matrix(1.12 0 0 1 15.21 20.7998)" class="st1 st2 st3">S</text>
<text transform="matrix(1.12 0 0 1 23.3638 20.7998)" class="st1 st2 st3 st4">T</text>
<text transform="matrix(1.12 0 0 1 30.3413 20.7998)" class="st1 st2 st3">A</text>
<text transform="matrix(1.12 0 0 1 40.4546 20.7998)" class="st1 st2 st3">R</text>
<text transform="matrix(1.12 0 0 1 49.4932 20.7998)" class="st1 st2 st3">T</text>
</svg>
